# xmcd
#
# Track frame offsets: 
#        150
#        15574
#        33174
#        54872
#        71624
#        91356
#        105352
#        125739
#        143786
#        165783
#
# Disc length: 2458 seconds
#
# Revision: 0
# Processed by: cddbd v1.5.2PL0 Copyright (c) Steve Scherf et al.
# Submitted via: ExactAudioCopy v0.99pb3
#
DISCID=7209980a
DTITLE=Ramon Goose Band - Journey Into The Blues
DYEAR=2008
DGENRE=Blues
TTITLE0=Rude Mood
TTITLE1=Everyday I Have The Blues
TTITLE2=In My Fathers House
TTITLE3=Travellin' South
TTITLE4=Heard The Angels Sing
TTITLE5=Perpetual Blues Machine
TTITLE6=Cut Me To The Bone
TTITLE7=Hey Hey
TTITLE8=Chevrolet
TTITLE9=Sitting On Top Of The World
EXTD=
EXTT0=
EXTT1=
EXTT2=
EXTT3=
EXTT4=
EXTT5=
EXTT6=
EXTT7=
EXTT8=
EXTT9=
PLAYORDER=
